<svg width="548" height="548" viewBox="0 0 548 548" fill="none" xmlns="http://www.w3.org/2000/svg">
<g filter="url(#filter0_d_1_25)">
<rect x="18" y="18" width="512" height="512" rx="112" fill="white"/>
</g>
<g clip-path="url(#clip0_1_25)">
<path d="M352.769 244.462C363.215 244.462 373.232 240.312 380.618 232.926C388.004 225.54 392.154 215.522 392.154 205.077V195.231C392.154 184.785 388.004 174.768 380.618 167.382C373.232 159.996 363.215 155.846 352.769 155.846H342.923C332.478 155.846 322.46 159.996 315.074 167.382C307.688 174.768 303.538 184.785 303.538 195.231V224.769H244.462V195.231C244.462 184.785 240.312 174.768 232.926 167.382C225.54 159.996 215.522 155.846 205.077 155.846H195.231C184.785 155.846 174.768 159.996 167.382 167.382C159.996 174.768 155.846 184.785 155.846 195.231V205.077C155.846 215.522 159.996 225.54 167.382 232.926C174.768 240.312 184.785 244.462 195.231 244.462H224.769V303.538H195.231C184.785 303.538 174.768 307.688 167.382 315.074C159.996 322.46 155.846 332.478 155.846 342.923V352.769C155.846 363.215 159.996 373.232 167.382 380.618C174.768 388.004 184.785 392.154 195.231 392.154H205.077C215.522 392.154 225.54 388.004 232.926 380.618C240.312 373.232 244.462 363.215 244.462 352.769V323.231H303.538V352.769C303.538 363.215 307.688 373.232 315.074 380.618C322.46 388.004 332.478 392.154 342.923 392.154H352.769C363.215 392.154 373.232 388.004 380.618 380.618C388.004 373.232 392.154 363.215 392.154 352.769V342.923C392.154 332.478 388.004 322.46 380.618 315.074C373.232 307.688 363.215 303.538 352.769 303.538H323.231V244.462H352.769ZM323.231 195.231C323.231 190.008 325.306 184.999 328.999 181.306C332.692 177.613 337.7 175.538 342.923 175.538H352.769C357.992 175.538 363.001 177.613 366.694 181.306C370.387 184.999 372.462 190.008 372.462 195.231V205.077C372.462 210.3 370.387 215.308 366.694 219.001C363.001 222.695 357.992 224.769 352.769 224.769H323.231V195.231ZM195.231 224.769C190.008 224.769 184.999 222.695 181.306 219.001C177.613 215.308 175.538 210.3 175.538 205.077V195.231C175.538 190.008 177.613 184.999 181.306 181.306C184.999 177.613 190.008 175.538 195.231 175.538H205.077C210.3 175.538 215.308 177.613 219.001 181.306C222.695 184.999 224.769 190.008 224.769 195.231V224.769H195.231ZM224.769 352.769C224.769 357.992 222.695 363.001 219.001 366.694C215.308 370.387 210.3 372.462 205.077 372.462H195.231C190.008 372.462 184.999 370.387 181.306 366.694C177.613 363.001 175.538 357.992 175.538 352.769V342.923C175.538 337.7 177.613 332.692 181.306 328.999C184.999 325.306 190.008 323.231 195.231 323.231H224.769V352.769ZM303.538 303.538H244.462V244.462H303.538V303.538ZM323.231 323.231H352.769C357.992 323.231 363.001 325.306 366.694 328.999C370.387 332.692 372.462 337.7 372.462 342.923V352.769C372.462 357.992 370.387 363.001 366.694 366.694C363.001 370.387 357.992 372.462 352.769 372.462H342.923C337.7 372.462 332.692 370.387 328.999 366.694C325.306 363.001 323.231 357.992 323.231 352.769V323.231Z" fill="url(#paint0_linear_1_25)"/>
</g>
<defs>
<filter id="filter0_d_1_25" x="0.9" y="0.9" width="546.2" height="546.2" filterUnits="userSpaceOnUse" color-interpolation-filters="sRGB">
<feFlood flood-opacity="0" result="BackgroundImageFix"/>
<feColorMatrix in="SourceAlpha" type="matrix" values="0 0 0 0 0 0 0 0 0 0 0 0 0 0 0 0 0 0 127 0" result="hardAlpha"/>
<feOffset/>
<feGaussianBlur stdDeviation="8.55"/>
<feComposite in2="hardAlpha" operator="out"/>
<feColorMatrix type="matrix" values="0 0 0 0 0 0 0 0 0 0 0 0 0 0 0 0 0 0 0.25 0"/>
<feBlend mode="normal" in2="BackgroundImageFix" result="effect1_dropShadow_1_25"/>
<feBlend mode="normal" in="SourceGraphic" in2="effect1_dropShadow_1_25" result="shape"/>
</filter>
<linearGradient id="paint0_linear_1_25" x1="172.725" y1="161.473" x2="386.527" y2="375.275" gradientUnits="userSpaceOnUse">
<stop stop-color="#0487FF"/>
<stop offset="1" stop-color="#9DD0FF"/>
</linearGradient>
<clipPath id="clip0_1_25">
<rect width="315.077" height="315.077" fill="white" transform="translate(116.462 116.462)"/>
</clipPath>
</defs>
</svg>
